<svg width="24" height="24" viewBox="0 0 24 24" fill="none" xmlns="http://www.w3.org/2000/svg">
<path d="M6.35355 5.64645C6.15829 5.45118 5.84171 5.45118 5.64645 5.64645C5.45118 5.84171 5.45118 6.15829 5.64645 6.35355L6.35355 5.64645ZM11.3536 10.6464L6.35355 5.64645L5.64645 6.35355L10.6464 11.3536L11.3536 10.6464Z" fill="black"/>
<path d="M11 11V7" stroke="black" stroke-linecap="round"/>
<path d="M11 11L7 11" stroke="black" stroke-linecap="round"/>
<path d="M13.3536 12.6464C13.1583 12.4512 12.8417 12.4512 12.6464 12.6464C12.4512 12.8417 12.4512 13.1583 12.6464 13.3536L13.3536 12.6464ZM18.3536 17.6464L13.3536 12.6464L12.6464 13.3536L17.6464 18.3536L18.3536 17.6464Z" fill="black"/>
<path d="M13 13V17" stroke="black" stroke-linecap="round"/>
<path d="M13 13L17 13" stroke="black" stroke-linecap="round"/>
</svg>
