<svg width="20" height="20" viewBox="0 0 20 20" fill="none" xmlns="http://www.w3.org/2000/svg">
<g id="fluent:open-20-filled">
<path id="Vector" d="M10.5 16.25C10.5 16.4489 10.579 16.6397 10.7197 16.7803C10.8603 16.921 11.0511 17 11.25 17H16.25C16.4489 17 16.6397 16.921 16.7803 16.7803C16.921 16.6397 17 16.4489 17 16.25V11.25C17 11.0511 16.921 10.8603 16.7803 10.7197C16.6397 10.579 16.4489 10.5 16.25 10.5C16.0511 10.5 15.8603 10.579 15.7197 10.7197C15.579 10.8603 15.5 11.0511 15.5 11.25V14.44L11.78 10.72C11.7113 10.6463 11.6285 10.5872 11.5365 10.5462C11.4445 10.5052 11.3452 10.4832 11.2445 10.4814C11.1438 10.4796 11.0438 10.4982 10.9504 10.5359C10.857 10.5736 10.7722 10.6297 10.701 10.701C10.6297 10.7722 10.5736 10.857 10.5359 10.9504C10.4982 11.0438 10.4796 11.1438 10.4814 11.2445C10.4832 11.3452 10.5052 11.4445 10.5462 11.5365C10.5872 11.6285 10.6463 11.7113 10.72 11.78L14.44 15.5H11.25C11.0511 15.5 10.8603 15.579 10.7197 15.7197C10.579 15.8603 10.5 16.0511 10.5 16.25Z" fill="white"/>
</g>
</svg>
